<svg width="455" height="100" viewBox="0 0 455 100" fill="none" xmlns="http://www.w3.org/2000/svg">
<rect width="100" height="100" rx="50" fill="#3F7288"/>
<rect x="20" y="43.1724" width="13.6552" height="13.6552" fill="white"/>
<rect x="65.5172" y="43.1724" width="13.6552" height="13.6552" fill="white"/>
<rect x="20" y="58.3448" width="13.6552" height="13.6552" fill="white"/>
<rect x="35.1724" y="58.3448" width="13.6552" height="13.6552" fill="white"/>
<rect x="50.3448" y="58.3448" width="13.6552" height="13.6552" fill="white"/>
<rect x="65.5172" y="58.3448" width="13.6552" height="13.6552" fill="white"/>
<rect x="50.3448" y="43.1724" width="13.6552" height="13.6552" fill="white"/>
<rect x="35.1724" y="43.1724" width="13.6552" height="13.6552" fill="white"/>
<rect x="20" y="28" width="13.6552" height="13.6552" fill="white"/>
<rect x="35.1724" y="34.8276" width="13.6552" height="6.82758" fill="white"/>
<rect x="65.5172" y="28" width="13.6552" height="13.6552" fill="white"/>
<path d="M454.693 78.1305H445.95V56.3863C445.95 49.1758 443.4 45.5706 438.3 45.5706C435.637 45.5706 433.439 46.5756 431.705 48.5855C429.972 50.5702 429.105 53.0825 429.105 56.1225V78.1305H420.324V39.541H429.105V45.9475H429.256C432.145 41.0736 436.315 38.6366 441.767 38.6366C445.963 38.6366 449.166 40.0058 451.377 42.7443C453.588 45.4576 454.693 49.3894 454.693 54.5397V78.1305Z" fill="#3F7288"/>
<path d="M404.534 31.4388C403.102 31.4388 401.871 30.974 400.841 30.0444C399.836 29.1149 399.334 27.9341 399.334 26.502C399.334 25.07 399.836 23.8766 400.841 22.922C401.871 21.9673 403.102 21.4899 404.534 21.4899C406.017 21.4899 407.273 21.9673 408.303 22.922C409.333 23.8766 409.848 25.07 409.848 26.502C409.848 27.8587 409.333 29.0269 408.303 30.0068C407.273 30.9614 406.017 31.4388 404.534 31.4388ZM408.868 78.1306H400.125V39.5411H408.868V78.1306Z" fill="#3F7288"/>
<path d="M389.46 78.1305H380.717V57.1023C380.717 53.0574 380.139 50.1305 378.984 48.3217C377.853 46.5128 375.931 45.6083 373.218 45.6083C370.932 45.6083 368.985 46.7514 367.377 49.0377C365.794 51.3239 365.003 54.0623 365.003 57.253V78.1305H356.222V56.3863C356.222 49.201 353.685 45.6083 348.61 45.6083C346.248 45.6083 344.301 46.6886 342.768 48.8492C341.261 51.0099 340.507 53.8111 340.507 57.253V78.1305H331.764V39.541H340.507V45.646H340.658C343.447 40.9731 347.504 38.6366 352.83 38.6366C355.493 38.6366 357.817 39.3777 359.802 40.86C361.812 42.3172 363.181 44.2391 363.91 46.6258C366.774 41.2997 371.045 38.6366 376.723 38.6366C385.214 38.6366 389.46 43.8748 389.46 54.3513V78.1305Z" fill="#3F7288"/>
<path d="M320.346 78.1305H311.603V71.5733H311.452C308.638 76.5478 304.305 79.035 298.451 79.035C293.703 79.035 289.896 77.314 287.032 73.8721C284.193 70.4051 282.774 65.6945 282.774 59.7402C282.774 53.3589 284.344 48.2463 287.484 44.4024C290.65 40.5585 294.858 38.6366 300.109 38.6366C305.31 38.6366 309.091 40.7218 311.452 44.8923H311.603V21H320.346V78.1305ZM311.716 60.4939V55.4441C311.716 52.7057 310.824 50.3818 309.04 48.4724C307.257 46.563 304.983 45.6083 302.219 45.6083C298.953 45.6083 296.378 46.8268 294.494 49.2638C292.635 51.7008 291.705 55.0798 291.705 59.4011C291.705 63.3203 292.597 66.423 294.381 68.7093C296.19 70.9704 298.614 72.1009 301.654 72.1009C304.644 72.1009 307.068 71.0081 308.927 68.8223C310.786 66.6115 311.716 63.8353 311.716 60.4939Z" fill="#3F7288"/>
<path d="M274.559 78.1305H266.079V72.1009H265.929C263.266 76.7236 259.359 79.035 254.209 79.035C250.415 79.035 247.438 78.0049 245.277 75.9448C243.142 73.8847 242.074 71.1588 242.074 67.7671C242.074 60.4814 246.27 56.2355 254.661 55.0296L266.117 53.4091C266.117 47.9071 263.504 45.1561 258.279 45.1561C253.681 45.1561 249.536 46.7389 245.843 49.9044V42.2544C249.912 39.8425 254.611 38.6366 259.937 38.6366C269.685 38.6366 274.559 43.4352 274.559 53.0323V78.1305ZM266.117 59.1749L258.015 60.3055C255.502 60.6321 253.606 61.2476 252.324 62.1521C251.068 63.0314 250.44 64.589 250.44 66.825C250.44 68.458 251.018 69.8021 252.174 70.8573C253.354 71.8874 254.925 72.4024 256.884 72.4024C259.547 72.4024 261.746 71.4728 263.479 69.6137C265.238 67.7295 266.117 65.3679 266.117 62.5289V59.1749Z" fill="#3F7288"/>
<path d="M202.203 76.8869V68.4831C205.746 70.8699 209.338 72.0632 212.981 72.0632C216.649 72.0632 219.601 71.1337 221.837 69.2745C224.073 67.3903 225.191 64.8905 225.191 61.7752C225.191 58.7102 224.048 56.3234 221.762 54.615C219.501 52.9067 216.247 52.0525 212.001 52.0525C210.544 52.0525 207.592 52.2032 203.145 52.5047L205.067 24.0901H231.673V31.5518H212.34L211.436 45.0807C213.17 44.9802 214.74 44.93 216.147 44.93C221.875 44.93 226.297 46.3997 229.412 49.3391C232.552 52.2786 234.122 56.2983 234.122 61.3983C234.122 66.7496 232.326 71.0457 228.733 74.2866C225.166 77.5024 220.254 79.1103 213.999 79.1103C208.723 79.1103 204.791 78.3692 202.203 76.8869Z" fill="#3F7288"/>
<path d="M193.385 60.7577C193.385 63.4711 192.933 65.9457 192.028 68.1817C191.149 70.4177 189.918 72.3522 188.335 73.9852C186.752 75.5931 184.868 76.8492 182.682 77.7537C180.522 78.633 178.173 79.0727 175.635 79.0727C172.922 79.0727 170.422 78.5451 168.136 77.4899C165.875 76.4347 163.915 74.8645 162.257 72.7793C160.624 70.694 159.355 68.1063 158.451 65.0161C157.546 61.9008 157.094 58.2956 157.094 54.2005C157.094 49.201 157.685 44.7667 158.865 40.8977C160.071 37.0287 161.717 33.7878 163.802 31.175C165.887 28.5621 168.337 26.5774 171.151 25.2207C173.965 23.8641 177.004 23.1857 180.271 23.1857C182.306 23.1857 184.152 23.3239 185.81 23.6003C187.493 23.8766 188.838 24.2535 189.843 24.7308V32.607C188.561 31.9538 187.192 31.4011 185.735 30.9489C184.278 30.4966 182.607 30.2705 180.723 30.2705C178.612 30.2705 176.665 30.6976 174.882 31.5518C173.098 32.406 171.553 33.6622 170.246 35.3203C168.965 36.9533 167.947 38.9883 167.194 41.4253C166.465 43.8371 166.088 46.6258 166.063 49.7914H166.289C167.445 48.0076 169.003 46.6007 170.962 45.5707C172.947 44.5406 175.271 44.0256 177.934 44.0256C180.296 44.0256 182.419 44.415 184.303 45.1938C186.212 45.9475 187.833 47.0529 189.164 48.5101C190.521 49.9421 191.563 51.7008 192.292 53.786C193.021 55.8461 193.385 58.17 193.385 60.7577ZM184.567 61.4737C184.567 59.9161 184.378 58.4966 184.001 57.2153C183.65 55.934 183.097 54.8412 182.343 53.9367C181.615 53.0072 180.685 52.2912 179.554 51.7887C178.449 51.2862 177.143 51.035 175.635 51.035C174.128 51.035 172.796 51.3113 171.641 51.8641C170.51 52.3916 169.555 53.0951 168.777 53.9744C167.998 54.8537 167.407 55.8587 167.005 56.9892C166.629 58.1198 166.44 59.2754 166.44 60.4562C166.44 61.7375 166.616 63.0565 166.968 64.4132C167.345 65.7447 167.91 66.9632 168.664 68.0686C169.417 69.1741 170.372 70.0911 171.528 70.8196C172.708 71.5231 174.103 71.8748 175.711 71.8748C177.143 71.8748 178.411 71.611 179.517 71.0834C180.622 70.5558 181.539 69.8273 182.268 68.8977C183.022 67.9681 183.587 66.8753 183.964 65.6191C184.366 64.3378 184.567 62.956 184.567 61.4737Z" fill="#3F7288"/>
<path d="M115 76.1332V67.9179C118.517 70.7066 122.487 72.1009 126.908 72.1009C130.501 72.1009 133.365 71.2844 135.501 69.6514C137.661 68.0184 138.742 65.8075 138.742 63.0188C138.742 56.8887 134.056 53.8237 124.685 53.8237H120.502V46.8143H124.497C132.812 46.8143 136.97 43.9251 136.97 38.1467C136.97 32.8205 133.729 30.1575 127.248 30.1575C123.63 30.1575 120.226 31.4513 117.035 34.039V26.2759C120.703 24.2158 125.037 23.1857 130.036 23.1857C134.835 23.1857 138.679 24.3917 141.568 26.8035C144.457 29.2153 145.902 32.3055 145.902 36.074C145.902 43.1839 142.284 47.7564 135.048 49.7914V49.9421C138.943 50.319 142.02 51.6882 144.281 54.0498C146.542 56.3863 147.673 59.3131 147.673 62.8304C147.673 67.6792 145.851 71.5985 142.209 74.5881C138.566 77.5527 133.767 79.035 127.813 79.035C122.462 79.035 118.191 78.0677 115 76.1332Z" fill="#3F7288"/>
</svg>
