<svg width="100" height="100" viewBox="0 0 100 100" fill="none" xmlns="http://www.w3.org/2000/svg">
<rect width="100" height="100" rx="50" fill="#3F7288"/>
<path d="M49.9074 54.9216C44.7222 63.6405 38.8272 68 32.2222 68C27.1296 68 22.9784 66.3196 19.7685 62.9589C16.5895 59.5664 15 55.1435 15 49.6902C15 44.554 16.6667 40.1628 20 36.5167C23.3333 32.8389 27.4074 31 32.2222 31C39.5062 31 45.463 35.3278 50.0926 43.9833C55.1543 35.3278 61.0185 31 67.6852 31C72.8086 31 76.9753 32.6962 80.1852 36.0887C83.3951 39.4494 85 43.8565 85 49.3098C85 54.4143 83.3333 58.8055 80 62.4833C76.6667 66.1611 72.5617 68 67.6852 68C60.7099 68 54.784 63.6405 49.9074 54.9216ZM52.9167 49.5C56.9599 57.7434 61.8827 61.865 67.6852 61.865C71.0494 61.865 73.7346 60.7237 75.7407 58.4409C77.7778 56.1264 78.7963 53.0827 78.7963 49.3098C78.7963 45.7588 77.7469 42.8102 75.6481 40.464C73.5494 38.1178 70.8951 36.9447 67.6852 36.9447C62.3457 36.9447 57.4228 41.1298 52.9167 49.5ZM47.037 49.4049C42.963 41.0981 38.0247 36.9447 32.2222 36.9447C28.8272 36.9447 26.1111 38.1337 24.0741 40.5116C22.0679 42.8895 21.0648 45.949 21.0648 49.6902C21.0648 53.1778 22.0988 56.0788 24.1667 58.3933C26.2654 60.7078 28.9506 61.865 32.2222 61.865C37.6543 61.865 42.5926 57.7117 47.037 49.4049Z" fill="white"/>
</svg>
